<svg width="88" height="88" viewBox="0 0 88 88" fill="none" xmlns="http://www.w3.org/2000/svg">
<path d="M53.4878 58.6484L58.6725 53.4656L80.7073 75.5004L75.5226 80.6832L53.4878 58.6484Z" fill="#616161"/>
<path d="M36.6668 66C52.8672 66 66.0002 52.8671 66.0002 36.6667C66.0002 20.4664 52.8672 7.33337 36.6668 7.33337C20.4665 7.33337 7.3335 20.4664 7.3335 36.6667C7.3335 52.8671 20.4665 66 36.6668 66Z" fill="#616161"/>
<path d="M59.4917 64.79L64.6745 59.6053L80.6172 75.548L75.4325 80.7327L59.4917 64.79Z" fill="#37474F"/>
<path d="M36.6668 60.5C49.8296 60.5 60.5002 49.8295 60.5002 36.6667C60.5002 23.5039 49.8296 12.8334 36.6668 12.8334C23.504 12.8334 12.8335 23.5039 12.8335 36.6667C12.8335 49.8295 23.504 60.5 36.6668 60.5Z" fill="#64B5F6"/>
<path d="M49.3166 26.0333C46.2 22.3666 41.6166 20.1666 36.6666 20.1666C31.7166 20.1666 27.1333 22.3666 24.0166 26.0333C23.2833 26.7666 23.4666 28.05 24.2 28.6C24.9333 29.3333 26.2166 29.15 26.7666 28.4166C29.3333 25.4833 32.8166 23.8333 36.6666 23.8333C40.5166 23.8333 44 25.4833 46.5666 28.4166C46.9333 28.7833 47.4833 29.15 48.0333 29.15C48.4 29.15 48.95 28.9666 49.1333 28.7833C49.8666 28.05 49.8666 26.7666 49.3166 26.0333Z" fill="#BBDEFB"/>
</svg>
