<svg width="88" height="88" viewBox="0 0 88 88" fill="none" xmlns="http://www.w3.org/2000/svg">
<g clip-path="url(#clip0)">
<path d="M65.4747 59.7162C65.4747 66.9254 50.82 72.776 32.7387 72.776C14.6602 72.776 0 66.9254 0 59.7162C0 52.4975 14.6602 46.651 32.7387 46.651C50.82 46.651 65.4747 52.4975 65.4747 59.7162Z" fill="#A6A8AB"/>
<path d="M54.755 74.7505C72.8346 74.7505 87.491 68.9034 87.491 61.6907C87.491 54.478 72.8346 48.631 54.755 48.631C36.6754 48.631 22.019 54.478 22.019 61.6907C22.019 68.9034 36.6754 74.7505 54.755 74.7505Z" fill="#A6A8AB"/>
<path d="M44.9309 70.2762C31.0846 70.2762 18.6684 67.2567 10.2534 62.48C10.1695 63.1249 10.1187 63.7766 10.1187 64.438C10.1187 76.9092 25.4623 87.0196 44.3878 87.0196C63.316 87.0196 78.6597 76.9079 78.6597 64.438C78.6597 63.9622 78.6321 63.4947 78.584 63.0286C70.2089 67.485 58.2285 70.2762 44.9282 70.2762" fill="#D0D2D3"/>
<path d="M27.3173 68.5506C20.7105 67.1949 14.8736 65.1076 10.2563 62.4841C10.1725 63.129 10.1216 63.7808 10.1216 64.4421C10.1216 76.9134 25.4652 87.0238 44.3907 87.0238C45.8826 87.0238 47.3483 86.9523 48.7935 86.8313C37.3012 83.8503 28.8477 76.9093 27.3173 68.5506Z" fill="#B6B6B7"/>
<path d="M82.6651 53.5397C82.6651 61.9698 65.5271 68.8022 44.3989 68.8022C23.2638 68.8022 6.12988 61.9602 6.12988 53.5397C6.12988 45.1068 23.2638 38.2634 44.3989 38.2634C65.5271 38.2634 82.6651 45.1013 82.6651 53.5397Z" fill="#D0D2D3"/>
<path d="M44.1236 66.0124C62.204 66.0124 76.861 60.1635 76.861 52.9485C76.861 45.7335 62.204 39.8846 44.1236 39.8846C26.0433 39.8846 11.3862 45.7335 11.3862 52.9485C11.3862 60.1635 26.0433 66.0124 44.1236 66.0124Z" fill="#A6A8AB"/>
<path d="M18.9202 42.5549C16.5497 44.649 14.0651 46.5891 11.6066 48.5774C9.41899 50.3401 12.213 53.5796 14.5065 52.3298C16.646 51.1706 18.769 50.0335 21.0336 49.1343C20.133 47.96 19.2282 46.7899 18.329 45.6156C17.7355 46.5777 17.0704 47.4938 16.3394 48.356C14.765 50.3388 16.7711 53.6924 19.2392 52.1111C20.8727 51.0689 22.4801 50.0266 24.1837 49.1026L20.9126 45.8343C20.3282 46.8105 19.8717 47.8019 19.4056 48.8428C18.5325 50.7733 20.5139 53.6732 22.6767 52.1139C24.434 50.8517 26.0964 49.5647 27.6762 48.0824C29.7992 46.1038 27.1152 43.2699 24.7791 44.3273C24.6471 44.4703 24.5234 44.6133 24.3969 44.7576C24.1109 45.8508 23.8235 46.9412 23.5402 48.0288C24.4853 47.4308 25.5277 47.0027 26.6202 46.7638C28.9674 46.0845 28.8409 42.8918 26.6202 42.1534C26.4044 42.0805 26.1912 42.0077 25.9767 41.9375V46.5507C27.0437 46.1478 28.086 45.9113 29.2052 45.6913C28.5879 44.2324 27.976 42.7722 27.36 41.3174C23.4811 43.2342 11.1886 46.3031 15.5377 52.9774C16.2225 51.7715 16.9127 50.5767 17.603 49.3749C17.1699 49.3323 16.7381 49.2896 16.305 49.2443C13.6402 48.6805 12.1387 52.1235 14.4611 53.6195C15.2724 54.2011 16.1317 54.7058 17.0379 55.1265C17.4421 53.6388 17.8436 52.1538 18.2451 50.666C17.24 50.7306 16.2404 50.8008 15.238 50.8819C12.1415 51.117 12.1759 55.3837 15.238 55.6655C18.3991 55.9529 22.5117 56.8123 25.4639 55.1788C26.403 54.6535 26.9296 54.1915 27.6309 53.4188C28.1245 52.8729 28.6442 52.3573 29.1722 51.8458C31.5702 49.5317 28.5315 52.525 28.5411 50.6922L32.1422 48.6283C31.7806 48.4138 31.4231 48.1952 31.0642 47.982C30.66 49.467 30.2612 50.952 29.8542 52.4398C30.6737 52.7629 31.4877 53.0847 32.3031 53.4009L33.5131 48.9432C32.2268 48.7933 30.9274 48.7933 29.6411 48.9432C27.8165 49.148 26.689 50.8132 27.5745 52.5443C29.1461 55.6092 32.7239 56.7958 35.8932 57.5094C38.8976 58.1969 40.1695 53.5838 37.1651 52.8977C35.2924 52.4728 32.6812 52.019 31.7174 50.1339C31.0244 51.3288 30.3424 52.5292 29.648 53.7309C30.9345 53.5851 32.2334 53.5851 33.52 53.7309C36.0349 54.0114 36.5766 50.4364 34.7272 49.2718C33.1212 48.2653 31.7366 47.8652 29.8597 47.6562C27.3834 47.3784 26.7591 50.974 28.6552 52.1098L29.7305 52.7574C31.3021 53.7034 33.3179 52.4865 33.3289 50.6908C33.3564 47.0292 30.7315 45.0423 27.4384 47.1199C26.0744 47.9848 24.9427 49.2663 23.8757 50.4529C22.2147 52.294 17.4435 51.0785 15.2449 50.8805V55.6642C16.2468 55.5882 17.2492 55.5186 18.252 55.4552C20.4754 55.3053 21.7142 52.1675 19.462 50.996C18.557 50.5761 17.6938 50.0715 16.8839 49.489C16.2665 50.9493 15.6519 52.404 15.0441 53.8629C15.8882 54.0459 16.7478 54.1477 17.6112 54.1668C19.3685 54.2053 20.6624 52.0768 19.6737 50.5629C19.0729 49.6361 28.6374 46.0158 29.7855 45.452C32.3512 44.1884 30.462 40.5804 27.9389 41.0795C26.8265 41.2982 25.7842 41.5402 24.7131 41.9389C22.5076 42.7667 22.377 45.7724 24.7131 46.552C24.9317 46.6235 25.1435 46.6964 25.3594 46.7638V42.1534C23.8084 42.6099 22.487 43.0183 21.1312 43.8969C20.1467 44.5404 19.4524 46.1038 20.2746 47.1708C22.2546 49.7489 24.324 49.7682 27.2046 48.4592C26.2366 47.2107 25.2686 45.9567 24.3047 44.704C23.033 45.8838 21.6864 46.9801 20.2732 47.9861L23.5471 51.26C24.016 50.2205 24.4656 49.2264 25.0541 48.2502C26.3205 46.1395 23.8441 43.857 21.7775 44.9763C20.0739 45.903 18.4679 46.948 16.8357 47.9861L19.7301 51.7413C20.6899 50.5285 21.6221 49.3226 22.4732 48.0315C23.565 46.3746 21.7349 43.7346 19.7686 44.5184C17.1176 45.5771 14.6082 46.8394 12.1016 48.1951C13.0669 49.4519 14.0362 50.7073 15.0042 51.9585C17.4586 49.9758 19.9432 48.0288 22.3124 45.9374C24.6292 43.8942 21.2316 40.5282 18.9271 42.5577" fill="#00A551"/>
<path d="M25.3715 55.3988C26.8317 57.013 28.6055 57.6194 30.723 57.948C30.9347 56.3819 31.1465 54.8144 31.361 53.2483C30.9078 53.2314 30.4639 53.114 30.0616 52.9045C29.8457 54.4734 29.6381 56.0395 29.4264 57.6098C32.3661 57.6112 37.8427 57.9398 38.7585 54.0815C39.8544 49.4684 36.4224 45.7078 32.428 44.0935L31.7886 48.7919H32.2204C35.0377 48.7919 35.3182 44.9818 32.8556 44.0935C31.427 43.5765 30.0561 43.0912 28.7031 42.4009C28.2989 43.8832 27.9001 45.3709 27.4931 46.86C28.8324 46.9288 34.2347 48.2942 33.7892 50.2755C33.5321 51.4085 33.9721 52.3202 34.8851 52.9802C37.8702 55.121 40.8155 57.5809 44.4867 58.3812C47.2037 58.9752 48.565 55.5473 46.3306 54.0087C45.8924 53.7097 45.4091 53.4827 44.8992 53.3363V57.948L46.4049 57.5177C49.3625 56.6748 48.1002 52.0534 45.1302 52.9059C44.6311 53.053 44.1279 53.1988 43.6232 53.3363C41.305 54.0004 41.3889 57.2468 43.6232 57.948C43.7222 58.0127 43.8199 58.0773 43.9134 58.1419C44.528 56.6803 45.1454 55.2255 45.7586 53.7667C42.5342 53.0585 39.9231 50.7293 37.3037 48.8497L38.401 51.5529C39.7375 45.6074 32.3592 42.3335 27.4917 42.0723C25.1446 41.9485 24.1794 45.4603 26.2845 46.5328C28.0032 47.4032 29.7797 48.0522 31.5879 48.7067C31.7982 47.1392 32.0086 45.5744 32.2245 44.0042H31.7927C28.9094 44.0042 28.7774 47.7469 31.1575 48.7067C32.1709 49.1164 35.7431 52.1483 33.4262 52.7134C32.1846 53.0187 30.6996 52.8303 29.4305 52.822C26.5279 52.8207 26.4371 56.5483 28.7925 57.5177C29.623 57.8642 30.4769 57.948 31.3665 58.0347C34.0395 58.3028 34.6596 53.7515 32.0017 53.3363C30.7216 53.1355 29.7041 53.0613 28.7567 52.0204C26.6832 49.7269 23.3076 53.119 25.377 55.3988" fill="#00A551"/>
<path d="M71.7477 53.6003C69.6935 54.4858 67.6337 55.3438 65.6097 56.2966C63.4812 57.3031 64.4863 60.9373 66.817 60.7571C69.116 60.5743 71.3228 60.0751 73.5902 59.6833L71.2637 55.6916C68.3803 58.234 62.8157 57.6826 59.2146 57.6881C56.5663 57.6909 55.8761 61.8406 58.5752 62.3879C61.0461 62.8843 63.2626 62.8403 65.7348 62.3879C68.016 61.9658 68.0448 58.1666 65.7348 57.7748C61.1822 56.9979 56.7203 57.4228 52.1361 57.6538C47.2191 57.9095 42.2883 57.0515 37.3713 56.9525C34.2405 56.8934 34.3587 61.4501 37.3713 61.7361C40.1007 61.996 42.6651 62.0689 45.367 61.6523C47.6536 61.303 47.6756 57.3636 45.367 57.0405C40.3303 56.3283 32.4268 55.0468 28.3197 58.8803C29.285 58.7538 30.2516 58.6328 31.221 58.5049C28.8573 57.5025 26.7316 56.3145 24.1232 56.2196C22.4416 56.1578 20.9566 58.355 22.0593 59.8166C22.5475 60.4739 23.0411 61.1243 23.5251 61.7788C24.6196 60.6884 25.71 59.6008 26.799 58.5049C23.2446 56.5744 20.2292 54.3661 16.0258 54.4981C13.7021 54.5738 12.686 57.7541 14.8186 58.9559C22.6685 63.3903 32.0377 65.7704 41.0536 65.6659C44.1473 65.6274 44.1281 60.9964 41.0536 60.8823C39.4132 60.8149 37.7825 60.6966 36.1407 60.6348C33.4732 60.5303 32.8421 64.8189 35.5082 65.3345C42.7517 66.737 49.9003 66.165 57.1466 65.0911C59.876 64.6841 59.1307 60.3886 56.5127 60.3886H54.5451V65.1723C57.5976 65.164 61.0543 65.2768 63.8236 63.7519C64.87 63.1771 70.5391 57.4805 71.0066 57.7335C72.1588 58.3509 73.6053 58.0278 74.2805 56.8741C74.858 55.8855 75.4808 54.945 75.9965 53.9248H71.8715C72.5053 54.6535 72.9962 55.4744 73.3427 56.3791C74.594 55.4125 75.8493 54.4486 77.1006 53.482C75.4506 51.4511 73.5572 50.3594 71.14 49.4313C70.0977 49.0325 68.9922 49.7008 68.4353 50.5299C68.0105 51.0524 67.6887 51.6216 67.4522 52.25C68.7062 52.0891 69.9561 51.9255 71.2073 51.7633C69.4913 50.2645 68.2566 48.4468 66.3082 47.2189C64.3461 45.9883 61.625 48.5031 63.0343 50.49C63.5458 51.2133 64.023 51.8059 64.6376 52.448C65.4117 51.1184 66.1872 49.7833 66.9655 48.4523C64.6582 47.9476 62.5641 47.2216 60.1895 47.1419C58.6715 47.0855 57.4257 48.7163 57.8822 50.1655C58.1435 51.0895 58.4707 51.9915 58.8626 52.8688L60.536 49.9208C59.9351 50.1435 59.491 50.3855 58.9932 50.7829C58.1517 51.4553 58.1407 52.8179 58.6165 53.68C58.9932 54.3111 59.3205 54.967 59.5982 55.6463C60.4975 54.472 61.4036 53.3019 62.2987 52.1304C59.5776 51.6601 57.6636 48.7204 55.6712 46.9824C53.7338 45.298 51.6535 44.5129 49.1523 44.1911C46.4023 43.8419 46.016 48.1663 48.5171 48.8895C51.8047 49.841 55.0676 50.1573 58.479 50.2026C61.6002 50.248 61.5122 45.65 58.479 45.4176C53.606 45.0464 52.6201 47.9366 49.6707 51.0276L53.7531 52.7189C53.5606 50.8874 57.2965 49.8438 58.5188 49.4189C61.5535 48.3478 64.0106 48.8496 66.8376 50.3676C69.5587 51.8251 71.9718 47.6946 69.2535 46.2289C64.7751 43.8254 61.009 43.4651 56.2446 45.1468C52.9831 46.2949 48.5391 48.6379 48.9708 52.7106C49.1771 54.6535 51.4843 56.045 53.0532 54.4005C54.838 52.5333 55.4787 49.9634 58.4803 50.1916V45.4066C55.4966 45.3681 52.6655 45.1 49.7903 44.2681L49.1537 48.9679C54.1065 49.6004 56.015 55.8704 61.0351 56.7339C63.1856 57.1024 64.6417 55.2008 63.737 53.2153C63.4618 52.5375 63.134 51.8824 62.7566 51.2559C62.6287 52.2184 62.505 53.185 62.3826 54.1516C62.1901 54.2754 62.0058 54.3991 61.8202 54.5215C62.9298 54.1173 64.0051 52.8591 63.4881 51.579C63.0905 50.7057 62.7626 49.8022 62.5077 48.8771C61.7363 49.8836 60.9705 50.897 60.1977 51.9049C62.1035 51.9736 63.8607 52.646 65.695 53.0448C68.016 53.5535 69.732 50.8324 68.0228 49.049C67.7382 48.7245 67.4563 48.3918 67.1745 48.059C66.0786 49.1508 64.991 50.2425 63.8978 51.3343C65.4475 52.3036 66.4636 53.9371 67.829 55.132C68.8918 56.0588 70.8952 56.1358 71.5827 54.648C71.8192 54.0238 72.1465 53.449 72.5686 52.9293C71.6693 53.3005 70.766 53.6621 69.8667 54.0334C71.5566 54.6783 72.5933 55.4675 73.7195 56.848C75.5303 59.0796 78.5938 56.243 77.4732 53.9495C77.1296 53.0524 76.6312 52.2226 76.0006 51.4979C75.023 50.1559 72.7638 49.753 71.8756 51.4979C71.3545 52.5168 70.7398 53.46 70.1596 54.4486C71.2472 54.1585 72.3431 53.8766 73.4335 53.5893C70.7577 52.1496 68.6292 52.7079 66.5172 54.8158C65.0405 56.2801 64.1577 57.8353 62.4032 59.0741C60.1867 60.632 57.1315 60.3721 54.563 60.3776C51.4802 60.3831 51.4802 65.1613 54.563 65.1613H56.5292L55.8926 60.4643C49.5387 61.4048 43.1532 61.9328 36.7993 60.7063C36.5835 62.271 36.3731 63.8399 36.1572 65.4033C37.799 65.4706 39.4283 65.5889 41.0701 65.6549V60.8713C32.8943 60.962 24.3707 58.8363 17.2455 54.8158C16.8467 56.3063 16.4425 57.7899 16.041 59.2735C19.2997 59.1731 21.6812 61.1476 24.4023 62.6299C26.337 63.6804 29.2052 61.3979 27.6735 59.3546C27.1853 58.6974 26.6958 58.0456 26.2022 57.3884C25.512 58.5901 24.8272 59.7905 24.1383 60.9881C25.8392 61.05 27.2967 61.9795 28.8188 62.6258C29.8528 63.0644 30.8483 63.0589 31.716 62.2531C34.1497 59.9844 41.1127 61.2219 44.1185 61.6413V57.0295C41.8662 57.3678 39.6456 57.1533 37.392 56.9415V61.7251C41.8195 61.8118 46.2153 62.3796 50.6456 62.4608C55.2862 62.5488 59.8512 61.5849 64.4781 62.3769V57.7638C62.9627 58.1419 61.3776 58.1419 59.8622 57.7638L59.2283 62.4608C64.3461 62.4553 70.5872 62.6574 74.6586 59.0604C76.6345 57.3279 74.4743 54.6975 72.3348 55.0646C70.4978 55.374 68.6993 55.814 66.8348 55.9611C67.235 57.4489 67.6406 58.9284 68.0435 60.4161C70.0633 59.4674 72.1258 58.6039 74.1773 57.7225C77.0002 56.5029 74.5582 52.3834 71.7628 53.5975" fill="#F6921E"/>
<path d="M41.5249 66.11C44.543 66.2613 47.5584 66.2613 50.5765 66.11C53.1257 65.9767 54.0071 61.798 51.2145 61.4089C47.755 60.9277 44.3409 61.1367 40.8676 61.1559C41.078 62.7262 41.2939 64.2868 41.5042 65.8557C43.9944 65.4913 46.3442 65.1819 48.6584 64.1342C51.4675 62.8582 49.031 58.7414 46.2439 60.0092C44.3876 60.8479 42.2234 60.9579 40.231 61.2467C37.5099 61.6482 38.2345 65.9657 40.8662 65.9505C43.8761 65.9244 46.9506 65.6095 49.9454 66.0248C50.1544 64.4587 50.3661 62.8939 50.5779 61.325C47.5626 61.4804 44.5414 61.4804 41.5262 61.325C38.4394 61.1697 38.4559 65.9588 41.5262 66.1155" fill="#A87C4F"/>
<path d="M63.9236 52.1936C60.0214 53.3623 56.1205 54.0622 52.0491 54.2465C49.4902 54.362 48.6308 58.5694 51.4125 58.9462C52.167 59.0576 52.9315 59.0862 53.6922 59.0314C56.2305 58.8596 57.1462 54.7855 54.3343 54.3372C54.1531 54.3057 53.9716 54.2759 53.7898 54.2478C54.3453 54.802 54.9077 55.3616 55.4605 55.9226C55.3972 56.7957 55.4178 56.804 55.51 55.9473C55.4706 55.5818 55.4165 55.2181 55.3477 54.857C54.8142 51.8196 50.2107 53.1093 50.7346 56.1247C50.527 54.9326 50.7538 56.9456 50.8501 57.1931C51.2708 58.256 51.9377 58.7674 53.0611 58.9476C53.2728 57.3801 53.4873 55.8153 53.6936 54.2478C53.3572 54.2663 53.0215 54.2961 52.6871 54.3372C52.4781 55.9006 52.265 57.4667 52.0505 59.0314C56.5079 58.8346 60.9237 58.0859 65.1968 56.8026C68.1448 55.9267 66.884 51.3067 63.9236 52.1936Z" fill="#A87C4F"/>
<path d="M41.3598 44.7164C45.3157 44.7054 49.2647 44.5871 53.2123 44.88C52.9992 43.3139 52.7888 41.745 52.5743 40.1816C51.0577 40.546 49.4984 40.4745 47.9433 40.5914C45.3061 40.7852 44.6254 44.5046 47.3108 45.2897C48.6776 45.6926 50.1942 45.8081 51.5142 46.3636C51.7026 44.9061 51.8868 43.4472 52.0834 41.9925C49.3747 42.9949 46.6481 43.901 43.8554 44.6256C42.1683 45.0629 41.4574 47.4127 42.7994 48.6241C43.3976 49.1645 43.9201 49.698 44.6007 50.149V46.024C44.2707 46.2412 43.9421 46.4612 43.6134 46.6826C42.4199 47.4774 41.8892 49.3831 43.1281 50.4419C43.8376 51.0496 44.4329 51.6711 45.2566 52.1317L45.8286 47.7537C45.2263 48.0122 44.7616 48.2542 44.2789 48.7011C43.2174 49.6746 43.3783 51.8237 44.7616 52.4576C45.2896 52.6969 45.7626 52.9059 46.3263 53.0241C49.3348 53.6497 50.6149 49.0407 47.5996 48.4137C47.4566 48.3835 47.3191 48.3532 47.1802 48.3271L47.6628 52.0809C47.4786 52.1771 47.2902 52.2747 47.1032 52.3696C48.8838 51.6244 49.6717 49.1054 47.6738 47.993C47.2173 47.7372 46.9093 47.3907 46.5133 47.0497C46.3483 48.3024 46.1957 49.5536 46.0279 50.8035C46.3593 50.5904 46.6866 50.3704 47.0166 50.1476C48.5497 49.1274 48.5579 47.036 47.0166 46.0089C46.7481 45.7415 46.4711 45.4829 46.1861 45.2334C45.8299 46.5657 45.4793 47.8981 45.1259 49.2319C47.9186 48.51 50.6534 47.5984 53.3539 46.5946C55.0356 45.9772 56.0434 43.1186 53.9259 42.2262C52.1811 41.4879 50.3867 41.1964 48.5813 40.6656C48.3709 42.2345 48.1537 43.802 47.9419 45.3654C49.9343 45.2224 51.8951 45.2581 53.8489 44.7865C56.5989 44.1265 55.7918 40.2779 53.2109 40.0881C49.2633 39.7952 45.3143 39.9107 41.3584 39.9217C38.2757 39.941 38.2757 44.7219 41.3584 44.7164" fill="#A87C4F"/>
<path d="M58.663 45.287C62.4429 46.4846 65.9972 48.2006 69.4471 50.1504C70.059 48.6929 70.6736 47.234 71.2882 45.7779C70.3134 45.5097 69.355 45.463 68.3499 45.3612C67.2815 45.2485 66.3369 46.1794 66.0412 47.1144C66.4771 45.7105 68.1189 45.7682 66.979 45.8012C66.3685 45.8026 65.7525 45.7394 65.1516 45.6857C64.0777 45.584 63.0094 45.3984 61.9314 45.3612C59.8097 45.2856 58.8101 48.0067 60.2401 49.445C61.3484 50.5629 62.5309 50.8915 64.0681 50.9657C67.1577 51.1294 67.1399 46.3457 64.0681 46.1821C63.9251 46.1395 63.7725 46.101 63.6267 46.0597C63.0602 47.4196 62.5006 48.7809 61.9341 50.1462C64.5562 50.2329 69.5571 51.9186 70.6571 48.3876C69.8885 48.9761 69.1226 49.5605 68.3526 50.1462C68.9136 50.1779 69.4705 50.2617 70.0219 50.3882C72.633 51.1074 74.2431 47.3619 71.8616 46.0144C68.0639 43.8666 64.1025 41.9884 59.9376 40.6711C56.9786 39.7416 55.7274 44.3657 58.663 45.287Z" fill="#A87C4F"/>
<path d="M72.0914 54.1199C71.5703 54.7098 71.0258 55.2612 70.4235 55.7658C70.5706 55.6641 70.5253 55.6957 70.2901 55.8676C70.1485 55.9679 70.0055 56.0614 69.8611 56.1577C69.713 56.249 69.5626 56.3365 69.4101 56.4203C69.45 56.3928 68.6938 56.7737 69.0348 56.6293C67.833 57.1312 66.9874 58.1927 67.3614 59.5732C67.6749 60.7062 69.1008 61.7498 70.3053 61.2438C72.3389 60.3927 74.0123 59.1524 75.4808 57.5024C76.3456 56.5276 76.4378 55.0797 75.4808 54.1186C74.5939 53.2427 72.9563 53.1451 72.0914 54.1186" fill="#A87C4F"/>
<path d="M21.9436 59.8523C23.21 59.8537 24.4653 60.0242 25.7248 60.1851C27.0228 60.3459 28.1146 58.9709 28.1146 57.7926C28.1146 56.3612 27.0173 55.5623 25.7248 55.3973C24.4653 55.2419 23.21 55.0811 21.9436 55.0687C20.6332 55.0577 19.5483 56.1687 19.5483 57.4653C19.5483 58.7771 20.6332 59.8413 21.9436 59.8523Z" fill="#A87C4F"/>
<path d="M32.1023 7.26417C24.8272 10.6274 21.7898 16.7613 25.1998 23.5895C27.2348 27.6637 30.4702 31.1727 33.1019 34.9457C36.4597 39.7692 36.3951 44.1815 33.7276 49.2773C32.6881 51.2559 36.0073 52.9898 37.0523 50.9988C40.8226 43.8117 40.025 38.1508 35.2689 31.5838C30.1594 24.5259 22.2092 15.6792 34.0479 10.2094C36.2548 9.18917 34.3037 6.24392 32.1037 7.26004" fill="#E6E7E8"/>
<path d="M44.7219 54.978C48.1457 51.1514 48.9294 47.2808 47.1818 42.636C45.2678 37.554 41.4893 33.4221 41.4274 27.8506C41.3738 23.2375 43.9547 18.7426 45.7504 14.5173C47.5929 10.1764 48.5142 5.83277 47.5255 1.23202C47.0663 -0.925357 43.3593 -0.0123569 43.8089 2.13814C45.5758 10.4294 39.0363 17.633 37.7754 25.5956C37.191 29.304 37.9885 32.9313 39.7045 36.3261C42.4023 41.657 46.8889 47.0951 41.9939 52.5663C40.4704 54.2726 43.1778 56.6913 44.7219 54.9753" fill="#E6E7E8"/>
<path d="M56.5951 49.6788C56.5497 45.9319 55.9928 42.5082 54.6178 38.962C53.9716 37.3065 52.8702 35.8545 52.2707 34.1757C51.6685 32.494 52.8661 30.503 53.7337 29.1019C56.6473 24.4077 59.7177 20.7268 56.5868 15.3849C55.436 13.4297 52.114 15.1553 53.2497 17.1023C56.3077 22.3122 49.8823 26.5307 48.55 31.4037C47.8597 33.9144 48.8566 36.1612 50.0886 38.3873C52.0796 42.0035 52.686 45.6885 52.7313 49.6788C52.7671 51.8774 56.6226 51.8774 56.5951 49.6788Z" fill="#E6E7E8"/>
</g>
<defs>
<clipPath id="clip0">
<rect width="88" height="88" fill="white"/>
</clipPath>
</defs>
</svg>
