<svg width="88" height="88" viewBox="0 0 88 88" fill="none" xmlns="http://www.w3.org/2000/svg">
<path d="M20.9275 8.50571C26.642 8.45346 32.3648 8.50571 38.082 8.48371C36.7263 14.322 35.4255 20.1767 34.0753 26.0177H7.975C7.15 26.0177 6.325 26.0452 5.5 25.9847C10.626 20.1437 15.8098 14.3522 20.9275 8.50571Z" fill="#F2E6C9"/>
<path d="M49.9482 8.48645H67.0532C72.1902 14.333 77.3767 20.13 82.5 25.9847C79.2 26.0535 75.9 25.9847 72.6 26.0149H53.9137C52.6157 20.1657 51.2297 14.3385 49.9482 8.48645Z" fill="#F2E6C9"/>
<path d="M38.0819 8.48645H49.9482C51.2297 14.3384 52.6129 20.1657 53.9192 26.0122H34.0752C35.4254 20.1767 36.7262 14.3247 38.0819 8.48645Z" fill="#EFC75E"/>
<path d="M5.5 25.982C6.325 26.0425 7.15 26.0122 7.975 26.015H34.0752C34.0752 32.1887 34.0752 38.3625 34.0945 44.5362C34.3281 44.5651 34.5631 44.5816 34.7985 44.5857H53.3417C53.526 44.5857 53.7103 44.5665 53.8918 44.5472C53.944 38.368 53.8918 32.1888 53.9165 26.0095H72.6027C75.9027 25.993 79.2028 26.048 82.5027 25.9792V79.5107H5.50275L5.5 25.982Z" fill="#E7BF55"/>
<path d="M34.0752 26.0204H53.9192C53.8972 32.1996 53.9494 38.3789 53.8944 44.5581C53.7116 44.5777 53.5282 44.5905 53.3444 44.5966H34.8012C34.5668 44.5933 34.3327 44.5777 34.0999 44.5499C34.0614 38.3679 34.0999 32.1914 34.0752 26.0204Z" fill="#DBB551"/>
<path d="M11.1211 62.0979H36.8886V72.0199H11.1211V62.0979Z" fill="#F2F2F2"/>
</svg>
